<svg width="523" height="336" viewBox="0 0 523 336" fill="none" xmlns="http://www.w3.org/2000/svg">
<mask id="mask0_0_1" style="mask-type:luminance" maskUnits="userSpaceOnUse" x="172" y="0" width="351" height="312">
<path d="M172.385 216.467L247.105 0L522.179 94.9504L447.458 311.417L172.385 216.467Z" fill="white"/>
</mask>
<g mask="url(#mask0_0_1)">
<mask id="mask1_0_1" style="mask-type:luminance" maskUnits="userSpaceOnUse" x="187" y="57" width="308" height="223">
<path d="M258.953 122.409C233.496 144.119 209.415 160.919 187.21 173.913C226.156 190.079 267.244 204.221 295.427 206.114C330.137 208.442 355.796 242.019 355.611 279.213C435.578 259.351 506.079 211.076 493.094 147.149C473.953 52.8356 383.969 15.8076 258.953 122.409Z" fill="white"/>
</mask>
<g mask="url(#mask1_0_1)">
<mask id="mask2_0_1" style="mask-type:luminance" maskUnits="userSpaceOnUse" x="187" y="57" width="308" height="223">
<path d="M258.953 122.409C233.496 144.119 209.415 160.919 187.21 173.913C226.156 190.079 267.244 204.221 295.427 206.114C330.137 208.442 355.796 242.019 355.611 279.213C435.578 259.351 506.079 211.076 493.094 147.149C473.953 52.8356 383.969 15.8076 258.953 122.409Z" fill="white"/>
</mask>
<g mask="url(#mask2_0_1)">
<path d="M479.019 -115.151L100.921 33.1386L246.947 405.472L625.046 257.183L479.019 -115.151Z" fill="url(#paint0_linear_0_1)"/>
</g>
</g>
</g>
<mask id="mask3_0_1" style="mask-type:luminance" maskUnits="userSpaceOnUse" x="0" y="114" width="373" height="222">
<path d="M0 219.379L36.2182 114.454L372.734 230.613L336.516 335.538L0 219.379Z" fill="white"/>
</mask>
<g mask="url(#mask3_0_1)">
<mask id="mask4_0_1" style="mask-type:luminance" maskUnits="userSpaceOnUse" x="1" y="173" width="355" height="117">
<path d="M295.427 206.114C267.244 204.221 226.156 190.079 187.21 173.913C100.391 224.725 42.2088 217.295 42.2088 217.295L1.05235 217.647C1.05235 217.647 136.476 272.071 243.081 286.901C277.433 291.68 317.586 288.655 355.611 279.213C355.796 242.019 330.137 208.442 295.427 206.114Z" fill="white"/>
</mask>
<g mask="url(#mask4_0_1)">
<mask id="mask5_0_1" style="mask-type:luminance" maskUnits="userSpaceOnUse" x="1" y="173" width="355" height="117">
<path d="M295.427 206.114C267.244 204.221 226.156 190.079 187.21 173.913C100.391 224.725 42.2088 217.295 42.2088 217.295L1.05235 217.647C1.05235 217.647 136.476 272.071 243.081 286.901C277.433 291.68 317.586 288.655 355.611 279.213C355.796 242.019 330.137 208.442 295.427 206.114Z" fill="white"/>
</mask>
<g mask="url(#mask5_0_1)">
<path d="M413.877 265.113L157.82 -4.8474L-40.4672 183.232L215.592 453.189L413.877 265.113Z" fill="url(#paint1_linear_0_1)"/>
</g>
</g>
</g>
<defs>
<linearGradient id="paint0_linear_0_1" x1="266.07" y1="-31.6324" x2="412.097" y2="340.701" gradientUnits="userSpaceOnUse">
<stop stop-color="#F7C9DD"/>
<stop offset="0.25" stop-color="#F7C9DD"/>
<stop offset="0.3125" stop-color="#F7C9DE"/>
<stop offset="0.320312" stop-color="#F7CADF"/>
<stop offset="0.328125" stop-color="#F7CBDF"/>
<stop offset="0.335938" stop-color="#F7CBDF"/>
<stop offset="0.34375" stop-color="#F8CCE0"/>
<stop offset="0.359375" stop-color="#F8CDE0"/>
<stop offset="0.367188" stop-color="#F8CEE1"/>
<stop offset="0.375" stop-color="#F7CFE1"/>
<stop offset="0.382812" stop-color="#F7CFE2"/>
<stop offset="0.390625" stop-color="#F7D0E2"/>
<stop offset="0.40625" stop-color="#F7D1E3"/>
<stop offset="0.414062" stop-color="#F6D2E3"/>
<stop offset="0.421875" stop-color="#F6D2E4"/>
<stop offset="0.4375" stop-color="#F6D3E4"/>
<stop offset="0.445312" stop-color="#F6D4E5"/>
<stop offset="0.453125" stop-color="#F6D5E5"/>
<stop offset="0.460937" stop-color="#F6D5E6"/>
<stop offset="0.46875" stop-color="#F5D6E6"/>
<stop offset="0.484375" stop-color="#F5D7E7"/>
<stop offset="0.492188" stop-color="#F5D8E8"/>
<stop offset="0.5" stop-color="#F6D9E8"/>
<stop offset="0.507812" stop-color="#F6DAE8"/>
<stop offset="0.515625" stop-color="#F5DAE9"/>
<stop offset="0.523438" stop-color="#F5DAE9"/>
<stop offset="0.53125" stop-color="#F5DBE9"/>
<stop offset="0.539062" stop-color="#F5DCEA"/>
<stop offset="0.546875" stop-color="#F5DCEA"/>
<stop offset="0.5625" stop-color="#F5DDEB"/>
<stop offset="0.570312" stop-color="#F5DEEB"/>
<stop offset="0.578125" stop-color="#F5DFEC"/>
<stop offset="0.59375" stop-color="#F5E0EC"/>
<stop offset="0.601563" stop-color="#F5E1ED"/>
<stop offset="0.609375" stop-color="#F4E2ED"/>
<stop offset="0.617188" stop-color="#F4E3ED"/>
<stop offset="0.625" stop-color="#F4E4EE"/>
<stop offset="0.632813" stop-color="#F4E5EF"/>
<stop offset="0.640625" stop-color="#F4E5EF"/>
<stop offset="0.648438" stop-color="#F5E6F0"/>
<stop offset="0.65625" stop-color="#F5E6F0"/>
<stop offset="0.664063" stop-color="#F5E7F0"/>
<stop offset="0.671875" stop-color="#F5E8F1"/>
<stop offset="0.679687" stop-color="#F5E9F1"/>
<stop offset="0.6875" stop-color="#F5E9F1"/>
<stop offset="0.695312" stop-color="#F5EAF2"/>
<stop offset="0.703125" stop-color="#F5EBF2"/>
<stop offset="0.710937" stop-color="#F5EBF2"/>
<stop offset="0.71875" stop-color="#F5ECF2"/>
<stop offset="0.734375" stop-color="#F5EDF3"/>
<stop offset="0.742188" stop-color="#F6EEF3"/>
<stop offset="0.75" stop-color="#F6EFF4"/>
<stop offset="0.757812" stop-color="#F6F0F5"/>
<stop offset="0.765625" stop-color="#F6F0F5"/>
<stop offset="0.78125" stop-color="#F6F1F6"/>
<stop offset="0.789062" stop-color="#F6F2F6"/>
<stop offset="0.796875" stop-color="#F7F3F6"/>
<stop offset="0.8125" stop-color="#F7F3F6"/>
<stop offset="0.875" stop-color="#F7F4F7"/>
<stop offset="1" stop-color="#F7F4F7"/>
</linearGradient>
<linearGradient id="paint1_linear_0_1" x1="293.996" y1="138.723" x2="95.7094" y2="326.8" gradientUnits="userSpaceOnUse">
<stop stop-color="#F6D5E5"/>
<stop offset="0.03125" stop-color="#F6D5E5"/>
<stop offset="0.0625" stop-color="#F5D6E6"/>
<stop offset="0.078125" stop-color="#F5D6E6"/>
<stop offset="0.09375" stop-color="#F5D7E7"/>
<stop offset="0.125" stop-color="#F5D7E7"/>
<stop offset="0.15625" stop-color="#F5D8E7"/>
<stop offset="0.171875" stop-color="#F6D8E8"/>
<stop offset="0.1875" stop-color="#F6D9E8"/>
<stop offset="0.21875" stop-color="#F6DAE8"/>
<stop offset="0.25" stop-color="#F5DAE9"/>
<stop offset="0.265625" stop-color="#F5DAE9"/>
<stop offset="0.28125" stop-color="#F5DBE9"/>
<stop offset="0.3125" stop-color="#F5DBE9"/>
<stop offset="0.34375" stop-color="#F5DCEA"/>
<stop offset="0.359375" stop-color="#F5DCEB"/>
<stop offset="0.375" stop-color="#F5DDEB"/>
<stop offset="0.40625" stop-color="#F5DDEB"/>
<stop offset="0.4375" stop-color="#F5DEEB"/>
<stop offset="0.453125" stop-color="#F5DFEB"/>
<stop offset="0.46875" stop-color="#F5DFEC"/>
<stop offset="0.5" stop-color="#F5E0EC"/>
<stop offset="0.53125" stop-color="#F5E0EC"/>
<stop offset="0.546875" stop-color="#F5E1EC"/>
<stop offset="0.5625" stop-color="#F5E1ED"/>
<stop offset="0.578125" stop-color="#F4E2ED"/>
<stop offset="0.59375" stop-color="#F4E2ED"/>
<stop offset="0.609375" stop-color="#F4E3ED"/>
<stop offset="0.625" stop-color="#F4E3EE"/>
<stop offset="0.640625" stop-color="#F4E4EE"/>
<stop offset="0.65625" stop-color="#F4E4EF"/>
<stop offset="0.6875" stop-color="#F4E5EF"/>
<stop offset="0.71875" stop-color="#F5E5F0"/>
<stop offset="0.734375" stop-color="#F5E6F0"/>
<stop offset="0.75" stop-color="#F5E6F0"/>
<stop offset="0.765625" stop-color="#F5E7F0"/>
<stop offset="0.78125" stop-color="#F5E7F0"/>
<stop offset="0.8125" stop-color="#F5E8F1"/>
<stop offset="0.84375" stop-color="#F5E9F1"/>
<stop offset="0.859375" stop-color="#F5E9F1"/>
<stop offset="0.875" stop-color="#F5EAF1"/>
<stop offset="0.890625" stop-color="#F5EAF2"/>
<stop offset="0.90625" stop-color="#F5EBF2"/>
<stop offset="0.9375" stop-color="#F5EBF2"/>
<stop offset="0.96875" stop-color="#F5ECF2"/>
<stop offset="0.984375" stop-color="#F5ECF3"/>
<stop offset="1" stop-color="#F5EDF3"/>
</linearGradient>
</defs>
</svg>
